<?xml version="1.0" encoding="UTF-8" standalone="no"?><svg version="1.1" xmlns="http://www.w3.org/2000/svg" xmlns:xlink="http://www.w3.org/1999/xlink" width="14px" height="14px" viewBox="0,0,256,256"><g fill="#ffffff" fill-rule="nonzero" stroke="none" stroke-width="1" stroke-linecap="butt" stroke-linejoin="miter" stroke-miterlimit="10" stroke-dasharray="" stroke-dashoffset="0" font-family="none" font-weight="none" font-size="none" text-anchor="none" style="mix-blend-mode: normal"><g transform="scale(18.28571,18.28571)"><path d="M12.7,8.8h-0.3v-2.02688c0,-0.23812 -0.09563,-0.46687 -0.26437,-0.63562l-1.87312,-1.87313c-0.16875,-0.16875 -0.3975,-0.26437 -0.63562,-0.26437h-0.82687v-0.9c0,-0.49688 -0.40312,-0.9 -0.9,-0.9h-4.8c-0.49688,0 -0.9,0.40312 -0.9,0.9v0.9h-1.05c-0.0825,0 -0.15,0.0675 -0.15,0.15v0.3c0,0.0825 0.0675,0.15 0.15,0.15h5.1c0.0825,0 0.15,0.0675 0.15,0.15v0.3c0,0.0825 -0.0675,0.15 -0.15,0.15h-4.5c-0.0825,0 -0.15,0.0675 -0.15,0.15v0.3c0,0.0825 0.0675,0.15 0.15,0.15h3.9c0.0825,0 0.15,0.0675 0.15,0.15v0.3c0,0.0825 -0.0675,0.15 -0.15,0.15h-4.5c-0.0825,0 -0.15,0.0675 -0.15,0.15v0.3c0,0.0825 0.0675,0.15 0.15,0.15h3.9c0.0825,0 0.15,0.0675 0.15,0.15v0.3c0,0.0825 -0.0675,0.15 -0.15,0.15h-2.85v2.4c0,0.99375 0.80625,1.8 1.8,1.8c0.99375,0 1.8,-0.80625 1.8,-1.8h2.4c0,0.99375 0.80625,1.8 1.8,1.8c0.99375,0 1.8,-0.80625 1.8,-1.8h0.9c0.165,0 0.3,-0.135 0.3,-0.3v-0.6c0,-0.165 -0.135,-0.3 -0.3,-0.3zM4,10.9c-0.49688,0 -0.9,-0.40313 -0.9,-0.9c0,-0.49688 0.40313,-0.9 0.9,-0.9c0.49687,0 0.9,0.40312 0.9,0.9c0,0.49687 -0.40313,0.9 -0.9,0.9zM10,10.9c-0.49687,0 -0.9,-0.40313 -0.9,-0.9c0,-0.49688 0.40312,-0.9 0.9,-0.9c0.49688,0 0.9,0.40312 0.9,0.9c0,0.49687 -0.40312,0.9 -0.9,0.9zM11.5,7h-2.7v-2.1h0.82687l1.87313,1.87312z"></path></g></g></svg>