<?xml version="1.0" encoding="UTF-8" standalone="no"?><svg version="1.1" xmlns="http://www.w3.org/2000/svg" xmlns:xlink="http://www.w3.org/1999/xlink" width="24px" height="24px" viewBox="0,0,256,256"><g fill="#ffffff" fill-rule="nonzero" stroke="none" stroke-width="1" stroke-linecap="butt" stroke-linejoin="miter" stroke-miterlimit="10" stroke-dasharray="" stroke-dashoffset="0" font-family="none" font-weight="none" font-size="none" text-anchor="none" style="mix-blend-mode: normal"><g transform="scale(10.66667,10.66667)"><path d="M20.276,2.553l1.724,3.447h-20l1.724,-3.447c0.16926,-0.33873 0.51533,-0.5528 0.894,-0.553h14.764c0.37867,0.0002 0.72474,0.21427 0.894,0.553zM2,8h20v13c0,0.55228 -0.44772,1 -1,1h-18c-0.55228,0 -1,-0.44772 -1,-1zM8.293,15.206c0.3905,0.39038 1.0235,0.39038 1.414,0l1.293,-1.293v4.587c0,0.55228 0.44772,1 1,1c0.55228,0 1,-0.44772 1,-1v-4.587l1.293,1.293c0.39238,0.37897 1.01608,0.37355 1.40182,-0.01218c0.38573,-0.38573 0.39115,-1.00944 0.01218,-1.40182l-3,-3c-0.3905,-0.39038 -1.0235,-0.39038 -1.414,0l-3,3c-0.39038,0.3905 -0.39038,1.0235 0,1.414z"></path></g></g></svg>
