<svg version="1.1" xmlns="http://www.w3.org/2000/svg" width="396" height="350" class="svg-preview" style="max-width: 100%; max-height: 500px; transform: translate(0px, 0px) scale(1.32411, 1.32411) rotate(0deg);">
<path d="M0 0 C2.8125 1.0625 2.8125 1.0625 5 3 C8.48001415 10.78860309 7.36437451 19.81375291 6 28 C14.25 28 22.5 28 31 28 C30.88194338 21.68783046 30.88194338 21.68783046 30.72973633 15.37646484 C30.68064811 10.15411195 31.04615061 6.50660641 34 2 C37.34725336 -0.62998478 40.8824152 -0.43342998 45 0 C47.75329021 1.79562405 49.52627461 3.05254922 51 6 C51.08426094 7.6674606 51.10725143 9.33825187 51.09765625 11.0078125 C51.09515869 11.8961377 51.09266113 12.78446289 51.09008789 13.69970703 C51.08098389 14.83005371 51.07187988 15.96040039 51.0625 17.125 C51.041875 20.71375 51.02125 24.3025 51 28 C62.88 27.505 62.88 27.505 75 27 C74.92157198 22.04944868 74.92157198 22.04944868 74.81982422 17.09936523 C74.77426913 11.33370727 75.19095202 6.01579632 79.1875 1.5625 C83.32118572 -0.73399207 86.7431601 -0.62689997 91.25 0.625 C93.95139092 2.74752144 94.73693737 4.79132835 96 8 C96.35310127 11.4687007 96.28435796 14.89308057 96.1875 18.375 C96.17396484 19.30183594 96.16042969 20.22867188 96.14648438 21.18359375 C96.11133881 23.45633998 96.06214132 25.72785847 96 28 C96.99 27.95359375 97.98 27.9071875 99 27.859375 C113.51568273 27.37790787 113.51568273 27.37790787 119 32 C122.48577717 36.37956618 124.13504772 39.87788929 124.09765625 45.44921875 C124.09443359 46.29677734 124.09121094 47.14433594 124.08789062 48.01757812 C124.07951172 48.89865234 124.07113281 49.77972656 124.0625 50.6875 C124.05798828 51.58017578 124.05347656 52.47285156 124.04882812 53.39257812 C124.03704983 55.59511987 124.02060164 57.79752599 124 60 C125.14214966 59.97643433 125.14214966 59.97643433 126.30737305 59.95239258 C129.7673394 59.88991547 133.2271869 59.85096828 136.6875 59.8125 C137.88568359 59.78736328 139.08386719 59.76222656 140.31835938 59.73632812 C141.47529297 59.72666016 142.63222656 59.71699219 143.82421875 59.70703125 C144.88729248 59.6913208 145.95036621 59.67561035 147.0456543 59.65942383 C150.42297605 60.04876056 152.26781732 61.01563652 155 63 C157.32826375 66.21522137 157.39711181 69.10830425 157 73 C155.27864879 76.78697267 153.86114234 78.51781955 150 80 C147.15917969 80.22705078 147.15917969 80.22705078 143.921875 80.1953125 C142.76171875 80.18886719 141.6015625 80.18242187 140.40625 80.17578125 C138.59640625 80.15064453 138.59640625 80.15064453 136.75 80.125 C135.52796875 80.11597656 134.3059375 80.10695313 133.046875 80.09765625 C130.03116634 80.07409603 127.01555842 80.03822539 124 80 C124 87.92 124 95.84 124 104 C126.74570312 103.96519531 126.74570312 103.96519531 129.546875 103.9296875 C131.94791259 103.91092939 134.34895459 103.89272924 136.75 103.875 C137.9565625 103.85824219 139.163125 103.84148437 140.40625 103.82421875 C141.56640625 103.81777344 142.7265625 103.81132812 143.921875 103.8046875 C144.99018555 103.79421387 146.05849609 103.78374023 147.15917969 103.77294922 C150.02459697 104.0019659 151.61199101 104.44192864 154 106 C156.12848485 108.73662337 156.9437477 110.54998157 157.375 114 C156.94697195 117.42422442 156.06082066 119.25223913 154 122 C150.45986775 124.36008817 148.98878045 124.23463644 144.80078125 124.1953125 C143.59228516 124.18886719 142.38378906 124.18242187 141.13867188 124.17578125 C139.2447168 124.15064453 139.2447168 124.15064453 137.3125 124.125 C136.03826172 124.11597656 134.76402344 124.10695313 133.45117188 124.09765625 C130.30070146 124.07405722 127.15032738 124.03818579 124 124 C124 132.25 124 140.5 124 149 C131.95885434 148.51451627 131.95885434 148.51451627 139.91455078 147.98144531 C149.10642753 147.51644623 149.10642753 147.51644623 152.71875 149.8359375 C156.08982991 153.03384549 156.77845367 155.48082514 157.4375 160 C156.84606107 164.05558121 155.08929581 165.42558683 152 168 C149.28598706 169.35700647 147.15153684 169.1123861 144.1171875 169.09765625 C142.95058594 169.09443359 141.78398437 169.09121094 140.58203125 169.08789062 C139.35871094 169.07951172 138.13539063 169.07113281 136.875 169.0625 C135.64394531 169.05798828 134.41289062 169.05347656 133.14453125 169.04882812 C130.09630608 169.0370133 127.04817686 169.02054028 124 169 C124.03480469 170.15757812 124.06960938 171.31515625 124.10546875 172.5078125 C124.13362207 174.0468604 124.16092056 175.58592411 124.1875 177.125 C124.21263672 177.88554687 124.23777344 178.64609375 124.26367188 179.4296875 C124.33708667 185.10709798 123.49407682 189.32822814 119.46484375 193.64453125 C114.57674077 197.38249235 111.54640498 198.24074249 105.5 198.625 C104.81035156 198.6765625 104.12070312 198.728125 103.41015625 198.78125 C98.24690727 199.12345364 98.24690727 199.12345364 96 198 C96.17015625 198.80308594 96.3403125 199.60617187 96.515625 200.43359375 C97.0979669 204.72132079 96.98329957 208.75352755 96.75 213.0625 C96.70939453 214.24682617 96.70939453 214.24682617 96.66796875 215.45507812 C96.37792693 221.03604415 95.10939033 224.3153214 91.625 228.75 C89.35412653 230.49682575 87.86854518 230.86657929 85 231 C80.85600772 229.42528293 78.27514807 227.83182833 76 224 C74.99994696 220.99984088 74.88424415 219.02576244 74.90234375 215.89453125 C74.90484131 215.00870361 74.90733887 214.12287598 74.90991211 213.21020508 C74.91901611 212.0889624 74.92812012 210.96771973 74.9375 209.8125 C74.958125 206.244375 74.97875 202.67625 75 199 C67.08 198.67 59.16 198.34 51 198 C51.05800781 199.80726563 51.11601562 201.61453125 51.17578125 203.4765625 C51.2226865 205.85934915 51.26818583 208.24216376 51.3125 210.625 C51.35439453 211.81480469 51.39628906 213.00460937 51.43945312 214.23046875 C51.57766081 224.12613905 51.57766081 224.12613905 48.76171875 227.79296875 C45.19658489 230.64205026 43.54531495 230.82385433 39.15625 230.53125 C35.69026742 229.67731226 34.08186495 227.79750603 32 225 C30.9605225 221.8815675 30.88505162 219.72524414 30.90234375 216.45703125 C30.90717773 214.84731445 30.90717773 214.84731445 30.91210938 213.20507812 C30.92467773 211.52575195 30.92467773 211.52575195 30.9375 209.8125 C30.94201172 208.68134766 30.94652344 207.55019531 30.95117188 206.38476562 C30.96296502 203.58979073 30.9794235 200.7949218 31 198 C30.01 198.33 29.02 198.66 28 199 C26.37280518 199.08143855 24.74248281 199.1075302 23.11328125 199.09765625 C22.17548828 199.09443359 21.23769531 199.09121094 20.27148438 199.08789062 C19.29501953 199.07951172 18.31855469 199.07113281 17.3125 199.0625 C16.32443359 199.05798828 15.33636719 199.05347656 14.31835938 199.04882812 C11.87884526 199.03704303 9.43945311 199.02059011 7 199 C7.01571045 199.6705542 7.0314209 200.3411084 7.04760742 201.03198242 C7.11014658 204.0837351 7.14905063 207.13535268 7.1875 210.1875 C7.21263672 211.24259766 7.23777344 212.29769531 7.26367188 213.38476562 C7.27333984 214.40634766 7.28300781 215.42792969 7.29296875 216.48046875 C7.3086792 217.41785889 7.32438965 218.35524902 7.34057617 219.32104492 C6.84553886 223.2149836 4.98470709 225.75959548 2.5859375 228.78125 C-0.06465778 230.81816066 -2.54072095 230.52853397 -5.7734375 230.41796875 C-9.40932738 229.73544205 -10.9101352 227.93887237 -13 225 C-13.91682129 221.52692907 -14.11860007 218.28061237 -14.09765625 214.69921875 C-14.09443359 213.72275391 -14.09121094 212.74628906 -14.08789062 211.74023438 C-14.07532227 210.22913086 -14.07532227 210.22913086 -14.0625 208.6875 C-14.05798828 207.66076172 -14.05347656 206.63402344 -14.04882812 205.57617188 C-14.03708184 203.05072118 -14.02065565 200.52539095 -14 198 C-15.22976562 198.04640625 -16.45953125 198.0928125 -17.7265625 198.140625 C-19.3593506 198.17816036 -20.99216511 198.21455862 -22.625 198.25 C-23.43324219 198.28351563 -24.24148437 198.31703125 -25.07421875 198.3515625 C-30.57224064 198.44096123 -33.65395312 197.68916346 -38 194 C-42.57522775 188.06456941 -43.1308789 184.13492114 -43.0625 176.75 C-43.05347656 175.48671875 -43.04445313 174.2234375 -43.03515625 172.921875 C-43.02355469 171.95765625 -43.01195313 170.9934375 -43 170 C-43.73114014 169.98541748 -44.46228027 169.97083496 -45.21557617 169.95581055 C-48.54007371 169.8811709 -51.86358467 169.78456199 -55.1875 169.6875 C-56.33798828 169.66494141 -57.48847656 169.64238281 -58.67382812 169.61914062 C-59.78564453 169.58369141 -60.89746094 169.54824219 -62.04296875 169.51171875 C-63.06414795 169.48553467 -64.08532715 169.45935059 -65.13745117 169.43237305 C-68.41442722 168.93740293 -70.33215254 167.93872802 -73 166 C-74.89441323 162.90005108 -75.00323683 161.09224952 -74.875 157.4375 C-73.92078686 153.68880554 -72.99526478 152.35990558 -70 150 C-67.33821779 148.6691089 -65.31260604 148.88731007 -62.3359375 148.90234375 C-60.8207251 148.90609009 -60.8207251 148.90609009 -59.27490234 148.90991211 C-57.34445068 148.92356812 -57.34445068 148.92356812 -55.375 148.9375 C-49.249375 148.9684375 -49.249375 148.9684375 -43 149 C-43 140.75 -43 132.5 -43 124 C-51.04749983 124.07896574 -51.04749983 124.07896574 -59.09472656 124.18017578 C-60.09987305 124.1851709 -61.10501953 124.19016602 -62.140625 124.1953125 C-63.16704102 124.20578613 -64.19345703 124.21625977 -65.25097656 124.22705078 C-68.07407073 123.99388226 -69.652127 123.55321839 -72 122 C-74.32455736 118.55324254 -75.00954896 116.55383955 -74.9375 112.375 C-73.92380506 108.72569823 -72.99103461 107.26593531 -70 105 C-69.34 105 -68.68 105 -68 105 C-67.505 104.01 -67.505 104.01 -67 103 C-59.08 103 -51.16 103 -43 103 C-43 95.41 -43 87.82 -43 80 C-44.73507813 80.05800781 -46.47015625 80.11601562 -48.2578125 80.17578125 C-50.54684806 80.22268772 -52.83591276 80.26818692 -55.125 80.3125 C-56.26710938 80.35439453 -57.40921875 80.39628906 -58.5859375 80.43945312 C-68.09243721 80.57762899 -68.09243721 80.57762899 -71.73828125 77.6953125 C-74.57754651 74.31173213 -75.07722302 72.40171191 -75 68 C-73.86737646 64.84057644 -73.0933977 62.72332934 -70.25292969 60.84423828 C-67.43004809 59.78642244 -65.15349941 59.77394388 -62.140625 59.8046875 C-61.02558594 59.81113281 -59.91054687 59.81757812 -58.76171875 59.82421875 C-57.02341797 59.84935547 -57.02341797 59.84935547 -55.25 59.875 C-53.48849609 59.88853516 -53.48849609 59.88853516 -51.69140625 59.90234375 C-48.79406464 59.92589937 -45.89713559 59.95879348 -43 60 C-43.02320312 58.85402344 -43.04640625 57.70804688 -43.0703125 56.52734375 C-43.08908479 54.9974024 -43.10728341 53.46745394 -43.125 51.9375 C-43.15013672 50.80924805 -43.15013672 50.80924805 -43.17578125 49.65820312 C-43.22777348 43.65310064 -42.51962347 38.47642342 -39.3125 33.25 C-35.4122022 29.45511566 -31.18225051 27.84453759 -25.81640625 27.70703125 C-24.39813727 27.72663866 -22.98000243 27.76192123 -21.5625 27.8125 C-20.46518555 27.83280273 -20.46518555 27.83280273 -19.34570312 27.85351562 C-17.56347578 27.88846126 -15.78163427 27.94225195 -14 28 C-14.01571045 27.42032471 -14.0314209 26.84064941 -14.04760742 26.2434082 C-14.11022791 23.59987261 -14.14907518 20.95649345 -14.1875 18.3125 C-14.21263672 17.40048828 -14.23777344 16.48847656 -14.26367188 15.54882812 C-14.33129987 9.34959544 -13.67784875 5.77348621 -9.25 1.1875 C-5.99828436 -0.52868326 -3.62539838 -0.38162088 0 0 Z M-17 52 C-17 52.66 -17 53.32 -17 54 C-17.66 54 -18.32 54 -19 54 C-22.42710574 59.46953517 -22.42766463 64.07388468 -22.38818359 70.31640625 C-22.39344055 71.34152313 -22.39869751 72.36664001 -22.40411377 73.42282104 C-22.4172903 76.80287017 -22.40858371 80.18244628 -22.3984375 83.5625 C-22.4004589 85.91609792 -22.40337089 88.26969523 -22.40713501 90.62329102 C-22.4115552 95.55263236 -22.40513695 100.48181046 -22.39111328 105.41113281 C-22.3740218 111.72623183 -22.38386458 118.04094833 -22.40183067 124.35603333 C-22.41267662 129.21507646 -22.40921839 134.07402907 -22.4014473 138.93307495 C-22.39944754 141.2614649 -22.40189665 143.58986309 -22.40888596 145.91824341 C-22.41651353 149.17358135 -22.40487723 152.42830174 -22.38818359 155.68359375 C-22.39425629 156.64377411 -22.40032898 157.60395447 -22.40658569 158.5932312 C-22.35705397 163.81299049 -21.94530639 167.49937624 -19 172 C-15.245507 175.388201 -12.84922227 177.11901874 -7.82038879 177.14717102 C-6.94426941 177.15432632 -6.06815002 177.16148163 -5.16548157 177.16885376 C-4.20184189 177.17154266 -3.23820221 177.17423157 -2.24536133 177.17700195 C-0.72560196 177.18685875 -0.72560196 177.18685875 0.82485962 177.19691467 C4.18923003 177.21667957 7.5535557 177.22831827 10.91796875 177.23828125 C12.06581659 177.24235678 13.21366444 177.2464323 14.39629555 177.25063133 C20.47326097 177.2715071 26.55020372 177.2858015 32.62719727 177.29516602 C38.90422656 177.30622498 45.18090082 177.34061507 51.45780468 177.38033772 C56.28341835 177.4064883 61.10894732 177.41485657 65.93462563 177.41844749 C68.24825751 177.42331857 70.56188548 177.43494727 72.87544823 177.45348549 C76.11671381 177.47783973 79.35705954 177.47691812 82.59838867 177.4699707 C83.5519072 177.48278076 84.50542572 177.49559082 85.48783875 177.50878906 C91.51087072 177.46180865 95.13909159 176.65380687 100 173 C104.04072512 168.56305269 103.42328151 163.29187901 103.38818359 157.61352539 C103.39344055 156.56904739 103.39869751 155.5245694 103.40411377 154.44844055 C103.41731034 150.9980267 103.40857594 147.54807475 103.3984375 144.09765625 C103.40045848 141.69778861 103.40337011 139.29792157 103.40713501 136.89805603 C103.41155804 131.86858269 103.40512836 126.83926921 103.39111328 121.80981445 C103.37403085 115.3657739 103.38385706 108.92210846 103.40183067 102.4780817 C103.41267679 97.52210164 103.40921815 92.56621034 103.4014473 87.61022758 C103.39944712 85.23438917 103.40189816 82.85854268 103.40888596 80.4827137 C103.41651277 77.16021543 103.40487781 73.83832239 103.38818359 70.51586914 C103.39425629 69.53541626 103.40032898 68.55496338 103.40658569 67.5447998 C103.34966517 61.42343764 102.44846972 57.2646263 98.6875 52.25 C93.46936405 48.38471411 87.33847333 48.70855131 81.15844727 48.7253418 C79.69633316 48.7176754 79.69633316 48.7176754 78.2046814 48.70985413 C74.99186005 48.69598704 71.77925391 48.69691267 68.56640625 48.69921875 C66.3273053 48.69533041 64.08820509 48.69099545 61.84910583 48.68623352 C57.15938931 48.67877763 52.46974809 48.67905817 47.7800293 48.68432617 C41.77668003 48.6901217 35.7736392 48.67318451 29.77034092 48.6499815 C25.1471731 48.63523524 20.52407943 48.63437366 15.90089226 48.63749123 C13.68775763 48.63697853 11.4746188 48.63175041 9.26150703 48.62167931 C6.16445098 48.60931439 3.06799405 48.61610712 -0.02905273 48.62768555 C-0.93888412 48.62004181 -1.84871552 48.61239807 -2.78611755 48.60452271 C-8.28288351 48.64984109 -12.09704088 49.48320746 -17 52 Z " fill="#fcfafa" transform="translate(157,60)"></path>
<path d="M0 0 C25.08 0 50.16 0 76 0 C76.33 26.07 76.66 52.14 77 79 C72.29675075 80.8812997 70.04502528 81.24871045 65.14599609 81.24291992 C64.14263466 81.24576744 64.14263466 81.24576744 63.1190033 81.24867249 C60.92036 81.2523604 58.72205115 81.24170606 56.5234375 81.23046875 C54.99077391 81.22927588 53.45810959 81.22882401 51.92544556 81.2290802 C48.71945595 81.22751886 45.51357857 81.21925463 42.30761719 81.20581055 C38.19730816 81.18879253 34.08712198 81.18499725 29.97678185 81.18575573 C26.81467516 81.18548394 23.65259534 81.18000177 20.49049759 81.17275429 C18.97462797 81.16957198 17.45875531 81.16760123 15.94288254 81.16686058 C13.8269404 81.16469399 11.71112893 81.15594372 9.59521484 81.14526367 C8.39118011 81.14145187 7.18714539 81.13764008 5.94662476 81.13371277 C3 81 3 81 0 80 C0 53.6 0 27.2 0 0 Z " fill="#fcfafa" transform="translate(160,135)"></path>
<path d="M0 0 C1.0625 1.875 1.0625 1.875 2 4 C1 6 1 6 -0.63824463 6.61790466 C-3.71478679 7.1156414 -6.67044363 7.11921452 -9.78808594 7.11352539 C-10.79845665 7.11374443 -10.79845665 7.11374443 -11.82923889 7.1139679 C-14.04765076 7.11327324 -16.26597786 7.10550181 -18.484375 7.09765625 C-20.02565464 7.09579048 -21.56693488 7.09436733 -23.10821533 7.09336853 C-27.15897263 7.08955585 -31.20969391 7.07973624 -35.26043701 7.06866455 C-39.39627597 7.05842356 -43.53212076 7.05386515 -47.66796875 7.04882812 C-55.77866234 7.03811284 -63.88932668 7.02105143 -72 7 C-72 6.01 -72 5.02 -72 4 C-71.01 3.67 -70.02 3.34 -69 3 C-68.67 3.33 -68.34 3.66 -68 4 C-66.19043114 4.0885579 -64.37738483 4.10688713 -62.56567383 4.09765625 C-61.40389114 4.09435303 -60.24210846 4.0910498 -59.04512024 4.08764648 C-57.77855087 4.07934814 -56.51198151 4.0710498 -55.20703125 4.0625 C-53.22995124 4.05671414 -51.25287119 4.05093395 -49.27579021 4.04548645 C-45.08512307 4.03231181 -40.89449328 4.01024484 -36.70385742 3.98962402 C-33.26674173 3.97303022 -29.82964522 3.95841966 -26.39250183 3.94897461 C-23.8115208 3.94144927 -21.23054814 3.92939957 -18.64961243 3.91235352 C-17.47206894 3.90905029 -16.29452545 3.90574707 -15.08129883 3.90234375 C-13.53361565 3.89448853 -13.53361565 3.89448853 -11.95466614 3.88647461 C-8.89546113 4.00401664 -6.00581263 4.43335638 -3 5 C-1.8509288 3.0745356 -1.8509288 3.0745356 -2 1 C-1.34 0.67 -0.68 0.34 0 0 Z " fill="#fcfafa" transform="translate(235,209)"></path>
<path d="M0 0 C4.29161047 -0.05783842 8.58312145 -0.0935412 12.875 -0.125 C14.09832031 -0.14175781 15.32164063 -0.15851563 16.58203125 -0.17578125 C17.74863281 -0.18222656 18.91523437 -0.18867188 20.1171875 -0.1953125 C21.19597168 -0.20578613 22.27475586 -0.21625977 23.38623047 -0.22705078 C26 0 26 0 28 2 C23.2781132 3.22348484 18.7102189 3.07761186 13.875 3 C12.26829715 2.97445623 10.66151437 2.95343547 9.0546875 2.9375 C7.99483643 2.92009766 7.99483643 2.92009766 6.91357422 2.90234375 C4.7765951 2.92587656 4.7765951 2.92587656 2 4 C1.360625 4.103125 0.72125 4.20625 0.0625 4.3125 C-2.69373616 5.23124539 -4.07819802 6.87229067 -6 9 C-5.4409112 5.75728494 -4.5867822 4.06942576 -2 2 C-1.34 2 -0.68 2 0 2 C0 1.34 0 0.68 0 0 Z " fill="#fcfafa" transform="translate(89,163)"></path>
<path d="M0 0 C7.92 0 15.84 0 24 0 C24 0.99 24 1.98 24 3 C12.615 2.505 12.615 2.505 1 2 C0.67 1.34 0.34 0.68 0 0 Z " fill="#fcfafa" transform="translate(283,164)"></path>
<path d="M0 0 C1.0625 1.875 1.0625 1.875 2 4 C1 6 1 6 -0.5625 6.6875 C-4.16467146 7.14931685 -7.41166932 6.5382496 -11 6 C-11 5.34 -11 4.68 -11 4 C-8.36 4.33 -5.72 4.66 -3 5 C-1.8509288 3.0745356 -1.8509288 3.0745356 -2 1 C-1.34 0.67 -0.68 0.34 0 0 Z " fill="#fcfafa" transform="translate(235,209)"></path>
<path d="M0 0 C0 0.33 0 0.66 0 1 C-1.546875 1.3403125 -1.546875 1.3403125 -3.125 1.6875 C-7.34408258 2.86471856 -9.81536784 5.04838971 -13 8 C-12.7323244 4.69866765 -12.4396165 3.37496702 -9.875 1.1875 C-6.41554399 -0.24140574 -3.70840602 -0.21814153 0 0 Z " fill="#fcfafa" transform="translate(202,60)"></path>
<path d="M0 0 C0.66 0.33 1.32 0.66 2 1 C1.236875 1.680625 0.47375 2.36125 -0.3125 3.0625 C-3.32843331 6.35898525 -4.45879017 8.86306835 -6 13 C-6.33 13 -6.66 13 -7 13 C-6.58634898 7.72594947 -5.71026864 4.82270102 -2 1 C-1.34 0.67 -0.68 0.34 0 0 Z " fill="#fcfafa" transform="translate(122,90)"></path>
<path d="M0 0 C-0.75 1.9375 -0.75 1.9375 -2 4 C-4.125 4.75 -4.125 4.75 -6 5 C-6.33 3.68 -6.66 2.36 -7 1 C-3.375 -1.125 -3.375 -1.125 0 0 Z " fill="#fcfafa" transform="translate(92,121)"></path>
<path d="M0 0 C0.33 0.66 0.66 1.32 1 2 C0.34 1.67 -0.32 1.34 -1 1 C-0.67 0.67 -0.34 0.34 0 0 Z M-2 2 C0 5 0 5 0 7 C-0.66 7 -1.32 7 -2 7 C-2.33 7.66 -2.66 8.32 -3 9 C-4 6 -4 6 -3.0625 3.8125 C-2.5365625 2.9153125 -2.5365625 2.9153125 -2 2 Z " fill="#fcfafa" transform="translate(147,62)"></path>
<path d="" fill="#fcfafa" transform="translate(0,0)"></path>
<path d="" fill="#fcfafa" transform="translate(0,0)"></path>
</svg>